<svg width="14" height="14" viewBox="0 0 14 14" fill="none" xmlns="http://www.w3.org/2000/svg">
<path d="M9.80545 2.69966L11.3005 4.19403M10.7669 1.38318L6.72424 5.42581C6.51536 5.6344 6.3729 5.90015 6.31482 6.18958L5.94141 8.05877L7.8106 7.68465C8.10002 7.62677 8.36543 7.48489 8.57437 7.27594L12.617 3.23331C12.7385 3.11183 12.8349 2.96761 12.9006 2.80889C12.9663 2.65016 13.0002 2.48005 13.0002 2.30824C13.0002 2.13644 12.9663 1.96632 12.9006 1.8076C12.8349 1.64888 12.7385 1.50466 12.617 1.38318C12.4955 1.26169 12.3513 1.16533 12.1926 1.09958C12.0339 1.03384 11.8637 1 11.6919 1C11.5201 1 11.35 1.03384 11.1913 1.09958C11.0326 1.16533 10.8883 1.26169 10.7669 1.38318Z" stroke="white" stroke-linecap="round" stroke-linejoin="round"/>
<path d="M11.5883 9.47052V11.5882C11.5883 11.9626 11.4396 12.3217 11.1748 12.5865C10.9101 12.8512 10.551 13 10.1766 13H2.41178C2.03735 13 1.67826 12.8512 1.4135 12.5865C1.14874 12.3217 1 11.9626 1 11.5882V3.8234C1 3.44897 1.14874 3.08988 1.4135 2.82512C1.67826 2.56036 2.03735 2.41162 2.41178 2.41162H4.52945" stroke="white" stroke-linecap="round" stroke-linejoin="round"/>
</svg>
