<svg width="20" height="16" viewBox="0 0 20 16" fill="none" xmlns="http://www.w3.org/2000/svg">
<path d="M0.75 0.75V0C0.551088 0 0.360322 0.0790175 0.21967 0.21967C0.0790175 0.360322 0 0.551088 0 0.75H0.75ZM18.75 0.75H19.5C19.5 0.551088 19.421 0.360322 19.2803 0.21967C19.1397 0.0790175 18.9489 0 18.75 0V0.75ZM0.75 1.5H18.75V0H0.75V1.5ZM18 0.75V12.75H19.5V0.75H18ZM16.75 14H2.75V15.5H16.75V14ZM1.5 12.75V0.75H0V12.75H1.5ZM2.75 14C2.06 14 1.5 13.44 1.5 12.75H0C0 13.4793 0.289731 14.1788 0.805456 14.6945C1.32118 15.2103 2.02065 15.5 2.75 15.5V14ZM18 12.75C18 13.44 17.44 14 16.75 14V15.5C17.4793 15.5 18.1788 15.2103 18.6945 14.6945C19.2103 14.1788 19.5 13.4793 19.5 12.75H18Z" fill="#4254FF"/>
<path d="M0.75 0.75L9.75 9.75L18.75 0.75" stroke="#4254FF" stroke-width="1.5" stroke-linecap="round" stroke-linejoin="round"/>
</svg>
