<svg width="112" height="37" viewBox="0 0 112 37" fill="none" xmlns="http://www.w3.org/2000/svg">
<path d="M111 32.3515L109.854 27.484C108.708 22.6166 106.417 12.8817 104.125 11.0623C101.833 9.24284 99.5417 15.3389 97.25 17.3939C94.9583 19.4488 92.6667 17.4628 90.375 13.4012C88.0833 9.33974 85.7917 3.2028 83.5 1.50719C81.2083 -0.188417 78.9167 2.55731 76.625 6.92118C74.3333 11.2851 72.0417 17.2671 69.75 22.8476C67.4583 28.428 65.1667 33.607 62.875 31.0841C60.5833 28.5611 58.2917 18.3364 56 16.6902C53.7083 15.044 51.4167 21.9763 49.125 22.117C46.8333 22.2576 44.5417 15.6065 42.25 12.6109C39.9583 9.61538 37.6667 10.2754 35.375 9.9655C33.0833 9.6556 30.7917 8.37576 28.5 7.77241C26.2083 7.16906 23.9167 7.2422 21.625 10.3908C19.3333 13.5393 17.0417 19.7634 14.75 22.9011C12.4583 26.0389 10.1667 26.0904 7.875 27.7592C5.58333 29.4279 3.29166 32.714 2.14583 34.357L1 36" stroke="#FF5B84"/>
</svg>
