<svg width="8" height="12" viewBox="0 0 8 12" fill="none" xmlns="http://www.w3.org/2000/svg">
<path d="M6.56073 0.555428V0.547852H0.762448V0.552966C0.561318 0.553011 0.368361 0.630039 0.225647 0.767257C0.082932 0.904475 0.00203286 1.09075 0.000587001 1.28548H0V5.72548H0.00763026C0.00763026 5.81198 0.0252262 5.89762 0.0594132 5.97753C0.0936002 6.05744 0.143709 6.13005 0.206878 6.19121C0.270048 6.25237 0.345041 6.30089 0.427576 6.33399C0.51011 6.36709 0.59857 6.38412 0.687905 6.38412C0.77724 6.38412 0.8657 6.36709 0.948235 6.33399C1.03077 6.30089 1.10576 6.25237 1.16893 6.19121C1.2321 6.13005 1.28221 6.05744 1.3164 5.97753C1.35058 5.89762 1.36818 5.81198 1.36818 5.72548H1.36975V2.62588H1.37151C1.37353 2.57183 1.3971 2.52065 1.43726 2.48307C1.47742 2.44549 1.53106 2.42443 1.58692 2.42432C1.70392 2.42432 1.79783 2.51392 1.80272 2.62588H1.80448V10.7533C1.80461 10.9576 1.88859 11.1536 2.03794 11.298C2.18729 11.4425 2.38979 11.5235 2.60087 11.5234C2.81196 11.5233 3.01435 11.442 3.16352 11.2974C3.31269 11.1528 3.39642 10.9567 3.39629 10.7523V6.65993H3.40216C3.40128 6.63137 3.40633 6.60293 3.41701 6.5763C3.42769 6.54967 3.44378 6.52538 3.46434 6.50488C3.48489 6.48438 3.50948 6.46808 3.53666 6.45695C3.56384 6.44582 3.59305 6.44009 3.62256 6.44009C3.65207 6.44009 3.68127 6.44582 3.70845 6.45695C3.73563 6.46808 3.76022 6.48438 3.78078 6.50488C3.80133 6.52538 3.81742 6.54967 3.8281 6.5763C3.83878 6.60293 3.84383 6.63137 3.84296 6.65993H3.84863V10.7523C3.85426 10.9531 3.9406 11.1438 4.08926 11.2839C4.23793 11.424 4.43718 11.5024 4.64463 11.5024C4.85208 11.5024 5.05134 11.424 5.2 11.2839C5.34867 11.1438 5.435 10.9531 5.44063 10.7523V2.62606C5.44063 2.57025 5.46353 2.51672 5.5043 2.47725C5.54506 2.43778 5.60035 2.41561 5.658 2.41561C5.71565 2.41561 5.77094 2.43778 5.8117 2.47725C5.85247 2.51672 5.87537 2.57025 5.87537 2.62606V5.72567H5.8828C5.8828 5.9004 5.95449 6.06798 6.08211 6.19153C6.20972 6.31509 6.3828 6.3845 6.56327 6.3845C6.74374 6.3845 6.91682 6.31509 7.04444 6.19153C7.17205 6.06798 7.24374 5.9004 7.24374 5.72567H7.24511V1.28548C7.2455 0.903787 6.94479 0.593503 6.56073 0.555428Z" fill="#4254FF"/>
</svg>
