<svg width="14" height="17" viewBox="0 0 14 17" fill="none" xmlns="http://www.w3.org/2000/svg">
<path d="M7 8.98775C8.24264 8.98775 9.25 8.01243 9.25 6.8093C9.25 5.60618 8.24264 4.63086 7 4.63086C5.75736 4.63086 4.75 5.60618 4.75 6.8093C4.75 8.01243 5.75736 8.98775 7 8.98775Z" stroke="#4254FF" stroke-width="2" stroke-linecap="round" stroke-linejoin="round"/>
<path d="M7 1C5.4087 1 3.88258 1.61204 2.75736 2.70147C1.63214 3.79091 1 5.2685 1 6.80919C1 8.18306 1.3015 9.08203 2.125 10.0769L7 15.523L11.875 10.0769C12.6985 9.08203 13 8.18306 13 6.80919C13 5.2685 12.3679 3.79091 11.2426 2.70147C10.1174 1.61204 8.5913 1 7 1Z" stroke="#4254FF" stroke-width="2" stroke-linecap="round" stroke-linejoin="round"/>
</svg>
