<svg width="574" height="576" viewBox="0 0 574 576" fill="none" xmlns="http://www.w3.org/2000/svg">
<path d="M104.301 154.791C102.527 158.235 98.8161 159.692 95.6241 160.436C91.5454 161.407 87.3274 161.665 83.1981 162.092L80.7978 162.776C80.3437 162.939 79.9212 163.204 79.5558 163.557C79.1897 163.91 78.8876 164.344 78.6666 164.833C78.4449 165.321 78.3094 165.856 78.2663 166.407C78.2233 166.957 78.2746 167.512 78.4164 168.039C79.9016 173.978 81.9447 179.709 84.5091 185.128L80.7091 189.544C79.6324 187.852 79.5818 184.886 78.1378 185.173C76.7508 183.561 75.1041 182.773 73.4004 184.93C70.0691 189.162 70.6074 197.957 75.5031 200.386L74.4074 206.723C74.0293 208.938 73.0027 210.933 71.5017 212.368C70.0001 213.802 68.1178 214.588 66.1741 214.591L67.0164 207.091C61.3164 210.439 54.8501 203.197 55.2998 197.228C55.5911 193.136 54.7931 190.31 52.1901 187.344C52.0191 187.145 53.0641 186.409 52.9058 186.21C52.1711 183.627 52.0698 180.609 52.7981 178.902C54.0648 175.855 57.7951 174.074 56.0788 170.747C55.3258 169.297 54.776 167.717 54.4511 166.066C54.1066 163.877 54.1693 161.628 54.6361 159.469C55.1028 157.311 55.9616 155.294 57.1554 153.554C59.6888 150.021 63.8054 150.971 67.1684 149.719C71.2661 148.247 73.1598 143.147 77.4474 141.572C79.5818 140.784 81.5578 141.145 83.6921 141.712C85.4971 142.198 87.2831 142.742 89.0564 143.39C90.8298 144.038 92.3878 144.575 94.1231 143.971C96.4157 143.235 98.1827 140.748 100.684 140.726C101.933 140.692 103.154 141.146 104.155 142.014C106.004 145.878 106.017 151.486 104.301 154.791Z" fill="#AF1FFC"/>
<path d="M25.9196 254.446C25.9196 254.446 -43.0313 166.067 58.5109 121.966C64.399 119.457 70.536 117.82 76.7762 117.093C92.9832 115.091 128.811 107.974 132.94 83.9365" stroke="#AF1FFC" stroke-width="4.11" stroke-miterlimit="10"/>
<path d="M315.365 130.724V130.702" stroke="#AF1FFC" stroke-width="4.11" stroke-miterlimit="10"/>
<path d="M134.448 289.855V289.833" stroke="black" stroke-width="4.11" stroke-miterlimit="10"/>
<path d="M80.5382 188.956C79.8631 187.601 79.06 186.336 78.1442 185.188C76.7572 183.576 75.1105 182.789 73.4069 184.945C70.0755 189.177 70.6139 197.972 75.5095 200.401L74.4139 206.738C74.0358 208.953 73.0091 210.948 71.5081 212.383C70.0065 213.817 68.1242 214.603 66.1805 214.606" stroke="black" stroke-width="4.11" stroke-linecap="round" stroke-linejoin="round"/>
<path d="M63.1152 242.647C63.3939 240.189 64.0842 233.734 64.7492 227.581C65.3826 221.877 65.9462 216.386 66.1679 214.576L67.0166 207.091" stroke="black" stroke-width="4.11" stroke-linecap="round" stroke-linejoin="round"/>
<path d="M102.217 168.893C102.217 168.893 94.1295 169.357 92.5652 177.136" stroke="black" stroke-width="4.11" stroke-miterlimit="10"/>
<path d="M105.156 189.449C107.36 189.383 110.222 189.008 111.261 186.41L105.688 179.263C104.328 177.512 103.524 175.274 103.408 172.919C103.186 168.967 103.585 162.696 100.33 158.523" stroke="black" stroke-width="4.11" stroke-miterlimit="10"/>
<path d="M100.39 179.557C101.303 178.384 101.348 176.704 100.491 175.805C99.6351 174.905 98.2012 175.127 97.2892 176.3C96.3766 177.473 96.331 179.153 97.1872 180.052C98.0435 180.952 99.4774 180.73 100.39 179.557Z" fill="black"/>
<path d="M99.8422 236.392L95.6432 212.737" stroke="black" stroke-width="4.11" stroke-miterlimit="10"/>
<path d="M206.286 342.853L179.224 368.569C211.784 426.272 187.141 436.863 187.141 436.863C182.36 437.926 177.534 438.681 172.682 439.122C149.147 441.095 125.004 434.036 105.605 418.227C66.3388 386.211 32.1388 322.135 50.3788 266.346C51.9134 261.628 53.7887 257.067 55.9838 252.715C57.8756 248.932 60.2841 245.532 63.1151 242.647C68.0703 237.606 74.1725 234.334 80.6888 233.226C87.2046 232.118 93.8577 233.219 99.8484 236.398C102.142 237.615 104.311 239.126 106.315 240.903C116.568 250.022 125.891 262.983 133.928 276.584C141.064 288.884 147.486 301.724 153.15 315.018C154.714 318.646 156.133 322.076 157.387 325.219C168.755 319.875 178.287 310.8 187.153 300.997C176.431 324.255 206.286 342.853 206.286 342.853Z" fill="#353642"/>
<path d="M187.35 361.665C186.83 362.128 186.292 362.614 185.754 363.078" stroke="black" stroke-width="4.11" stroke-miterlimit="10"/>
<path d="M107.341 263.903C114.518 279.874 121.697 295.875 128.874 311.905C134.289 324.005 143.441 331.475 156.329 325.742C170.351 319.501 181.662 307.57 192.125 295.411C202.588 283.253 213.19 271.624 228.295 268.489C247.82 264.433 266.295 276.798 279.595 292.423C280.618 293.615 281.265 295.173 281.432 296.845C281.598 298.517 281.275 300.207 280.513 301.638C280.024 302.554 279.371 303.337 278.599 303.933C277.826 304.529 276.952 304.925 276.037 305.093C275.12 305.261 274.184 305.198 273.291 304.908C272.398 304.618 271.569 304.108 270.861 303.412C264.559 297.163 254.306 288.125 247.174 288.007" stroke="black" stroke-width="4.11" stroke-miterlimit="10"/>
<path d="M227.718 309.446C229.91 311.146 232.95 313.031 235.483 313.031" stroke="black" stroke-width="4.11" stroke-miterlimit="10"/>
<path d="M255.8 291.107C260.474 293.793 262.178 301.653 258.878 306.349C254.695 312.382 249.452 317.31 243.501 320.804C236.99 324.58 232.81 322.276 226.401 317.669" stroke="black" stroke-width="4.11" stroke-miterlimit="10"/>
<path d="M244.983 298.15C244.983 298.15 254.242 300.814 253.995 311.258C253.979 311.704 253.91 312.144 253.793 312.568" stroke="black" stroke-width="4.11" stroke-miterlimit="10"/>
<path d="M238.441 304.728C238.441 304.728 250.86 314.054 244.951 319.92" stroke="black" stroke-width="4.11" stroke-miterlimit="10"/>
<path d="M478.353 341.278C463.724 388.007 422.766 389.324 418.079 389.324C420.043 384.518 420.575 376.076 416.274 361.283C419.155 356.394 420.671 350.594 420.618 344.668C420.565 338.743 418.945 332.981 415.977 328.163C416.034 328.104 416.065 328.023 416.116 327.964C418.164 327.819 420.196 327.462 422.19 326.897C429.258 324.939 443.191 320.641 454.249 314.591C461.748 310.477 470.494 317.071 469.854 326.691C469.854 326.816 469.854 326.934 469.816 327.073C471.28 327.073 472.723 327.482 474.022 328.268C475.32 329.054 476.436 330.193 477.274 331.588C478.112 332.983 478.648 334.592 478.836 336.279C479.024 337.966 478.859 339.682 478.353 341.278Z" fill="#AF1FFC"/>
<path d="M290.615 450.878C285.687 460.703 278.018 469.071 270.608 476.373C244.521 502.03 210.441 515.057 176.241 515.565C141.927 515.057 107.721 501.985 81.5135 476.557C-1.29477 396.2 13.6709 301.322 27.0659 257.39C27.5376 255.871 28.1763 254.429 28.9659 253.1C30.0132 251.319 31.3729 249.816 32.9557 248.69C34.5384 247.563 36.3082 246.839 38.1493 246.564C45.1792 247.69 51.5632 254.468 50.4359 264.964C50.4359 265.369 50.2966 265.928 50.2649 266.333C32.0375 322.122 66.2502 386.198 105.492 418.214C123.294 432.735 145.094 439.874 166.754 439.411H167.001C168.858 439.366 170.714 439.266 172.568 439.109C184.734 438.079 196.558 434.693 208.269 430.593C222.012 425.817 235.603 420.024 249.334 415.969C254.16 414.541 258.999 413.165 263.863 411.877C266.67 411.208 269.54 410.977 272.4 411.192C289.266 412.517 301.115 429.946 290.615 450.878Z" fill="#D7E8F0"/>
<path d="M294.782 450.878C289.855 460.703 282.179 469.072 274.769 476.373C247.643 503.075 211.853 516.117 176.222 515.565C141.908 515.057 107.702 501.985 81.4945 476.557C-1.29466 396.2 13.671 301.322 27.066 257.39C27.5378 255.871 28.1764 254.429 28.966 253.1C30.0133 251.319 31.373 249.816 32.9558 248.69C34.5385 247.563 36.3088 246.839 38.1492 246.564C45.1792 247.69 51.5632 254.468 50.4359 264.964C50.4359 265.369 50.2965 265.928 50.2649 266.333C32.0376 322.122 66.2502 386.198 105.491 418.214C123.294 432.735 145.094 439.874 166.754 439.411H167.001C170.264 439.47 173.509 439.369 176.735 439.109C188.901 438.079 200.719 434.693 212.436 430.593C226.179 425.817 239.771 420.024 253.501 415.969C258.321 414.541 263.166 413.165 268.024 411.877C269.468 411.534 270.929 411.305 272.4 411.192C291.362 409.713 306.131 428.253 294.782 450.878Z" fill="#D7E8F0"/>
<path d="M181.941 515.43L190.276 529.134C190.276 529.134 240.708 531.416 268.309 558.339C273.413 563.321 270.361 573 263.698 573C262.027 573.006 260.409 572.323 259.132 571.072C252.615 564.712 227.718 544.723 171.402 544.119C116.53 543.523 95.4848 563.255 89.6644 570.446C89.0007 571.258 88.2008 571.904 87.3141 572.343C86.4275 572.782 85.473 573.006 84.5091 573H83.4261C76.5861 573 73.6918 562.961 79.0941 558.088C102.135 537.267 153.783 530.628 153.783 530.628L162.599 515.172" fill="#353642"/>
<path d="M405.134 439.439C405.134 439.439 420.581 456.493 415.761 509.359C415.41 513.134 414.28 516.755 412.468 519.914L410.789 522.858C408.037 527.648 403.887 531.119 399.104 532.632C389.015 535.833 370.712 543.252 359.407 557.31C354.632 563.264 358.185 572.965 365.19 572.965C366.495 572.969 367.782 572.597 368.935 571.883C370.087 571.169 371.07 570.135 371.795 568.872C376.399 560.821 390.339 543.723 423.963 544.084C461.887 544.489 477.163 562.013 482.058 569.564C482.735 570.617 483.613 571.473 484.623 572.063C485.634 572.653 486.748 572.962 487.879 572.965C489.296 572.961 490.682 572.477 491.866 571.572C493.05 570.668 493.982 569.38 494.546 567.869C495.109 566.358 495.282 564.688 495.042 563.065C494.801 561.442 494.159 559.935 493.192 558.73C478.404 540.058 460.316 533.095 450.335 530.512C445.32 529.256 440.89 525.867 437.915 521.01C435.638 517.264 434.342 512.831 434.185 508.248C433.627 491.857 433.336 452.069 442.893 439.454" fill="#353642"/>
<path d="M208.395 430.614C235.559 415.29 265.041 405.237 294.028 395.772C323.2 386.248 352.656 377.938 382.201 370.129C394.006 367.016 405.919 364.242 417.667 360.731" stroke="black" stroke-width="4.11" stroke-miterlimit="10"/>
<path d="M233.881 312.819H233.9H233.913" stroke="black" stroke-width="4.11" stroke-miterlimit="10"/>
<path d="M230.834 310.824C229.131 312.782 223.051 323.24 221.524 325.117C213.139 335.56 204.232 345.42 194.848 354.646C192.486 356.927 189.984 359.282 187.35 361.667C186.83 362.131 186.292 362.616 185.754 363.08C167.894 378.83 144.587 393.992 123.054 384.277C122.484 384.034 121.927 383.754 121.376 383.467C88.3472 366.282 65.2622 323.24 63.2482 281.693C63.1786 280.339 63.1406 278.992 63.1279 277.66C62.9506 266.303 64.3946 254.947 73.7679 248.956" stroke="black" stroke-width="4.11" stroke-miterlimit="10"/>
<path d="M50.4296 266.185L50.5626 264.978C52.6652 245.386 28.7253 238.776 23.0443 257.39C9.65568 301.314 -5.3163 396.17 77.5109 476.541C130.97 528.437 217.522 528.797 270.779 476.372C278.189 469.078 285.858 460.695 290.792 450.869C303.275 426.022 284.212 406.099 262.71 412.215" stroke="black" stroke-width="4.11" stroke-miterlimit="10"/>
<path d="M181.941 515.43L190.276 529.134C190.276 529.134 240.708 531.416 268.309 558.339C273.413 563.321 270.361 573 263.698 573C262.027 573.006 260.409 572.323 259.132 571.072C252.615 564.712 227.718 544.723 171.402 544.119C116.53 543.523 95.4848 563.255 89.6644 570.446C89.0007 571.258 88.2008 571.904 87.3141 572.343C86.4275 572.782 85.473 573.006 84.5091 573H83.4261C76.5861 573 73.6918 562.961 79.0941 558.088C102.135 537.267 153.783 530.628 153.783 530.628L162.599 515.172" stroke="black" stroke-width="4.11" stroke-miterlimit="10"/>
<path d="M153.783 313.842C174.924 307.218 183.632 272.56 187.141 249.258" stroke="black" stroke-width="4.11" stroke-miterlimit="10"/>
<path d="M133.909 276.606C139.782 275.712 145.36 273.083 150.109 268.97C154.858 264.857 158.62 259.397 161.035 253.113C161.54 251.862 161.786 250.493 161.753 249.112C161.72 247.731 161.409 246.379 160.845 245.164C158.539 240.203 155.1 234.455 155.917 228.508C156.506 224.313 159.477 221.362 162.884 220.412C164.611 219.886 166.43 219.922 168.141 220.515C169.166 220.853 170.114 221.452 170.916 222.267C171.718 223.083 172.353 224.096 172.777 225.233C173.606 227.493 172.618 229.73 171.092 231.202C169.566 232.674 167.78 233.197 165.918 233.785C165.677 233.866 165.018 234.028 164.29 234.19" stroke="black" stroke-width="4.11" stroke-miterlimit="10"/>
<path d="M417.642 360.717C417.642 360.717 459.315 350.575 467.143 335.965C468.611 333.301 469.525 330.278 469.816 327.133" stroke="black" stroke-width="4.11" stroke-miterlimit="10"/>
<path d="M212.582 335.766C285.269 326.795 367.311 328.119 367.311 328.119H413.355C416.33 328.124 419.296 327.719 422.19 326.912C429.258 324.955 443.191 320.664 454.249 314.606C461.748 310.492 470.494 317.087 469.854 326.714C469.854 326.831 469.854 326.956 469.816 327.096C471.277 327.097 472.716 327.507 474.012 328.291C475.308 329.075 476.422 330.211 477.26 331.602C478.097 332.993 478.634 334.598 478.825 336.282C479.015 337.965 478.853 339.677 478.353 341.272C462.824 390.871 417.642 389.318 417.642 389.318C411.866 389.516 406.103 389.781 400.321 390.127C349.382 393.005 298.892 401.315 249.467 415.983C235.736 420.038 222.145 425.823 208.402 430.607C196.685 434.722 184.848 438.085 172.682 439.116C149.147 441.095 125.005 434.03 105.606 418.22C63.1153 383.57 26.5467 311.324 55.984 252.679C66.377 231.983 89.9116 226.316 106.315 240.903C129.451 261.474 147.931 301.55 157.412 325.19" stroke="black" stroke-width="4.11" stroke-miterlimit="10"/>
<path d="M477.391 439.439H376.235" stroke="black" stroke-width="4.11" stroke-miterlimit="10"/>
<path d="M355.816 415.695C355.831 409.402 357.988 403.373 361.816 398.923C365.645 394.473 370.833 391.964 376.247 391.945H477.416C482.832 391.961 488.021 394.47 491.851 398.92C495.681 403.37 497.838 409.402 497.854 415.695" stroke="black" stroke-width="4.11" stroke-miterlimit="10"/>
<path d="M499.842 424.116C499.847 426.13 499.51 428.126 498.848 429.988C498.187 431.851 497.215 433.543 495.989 434.967C494.763 436.391 493.307 437.519 491.704 438.287C490.101 439.054 488.383 439.446 486.65 439.439H366.95C363.954 439.11 361.189 437.427 359.249 434.753C357.309 432.079 356.349 428.627 356.577 425.14C356.804 421.652 358.2 418.407 360.464 416.103C362.729 413.799 365.681 412.62 368.685 412.818H488.385C490.51 412.815 492.605 413.409 494.488 414.551C496.372 415.693 497.99 417.348 499.203 419.376C499.626 420.908 499.842 422.507 499.842 424.116Z" fill="#D7E8F0"/>
<path d="M499.842 424.115C499.847 426.13 499.509 428.126 498.848 429.988C498.187 431.85 497.215 433.542 495.989 434.966C494.763 436.39 493.306 437.518 491.704 438.286C490.101 439.054 488.384 439.445 486.65 439.439H366.95C365.194 439.484 363.447 439.12 361.813 438.37C360.18 437.619 358.691 436.498 357.436 435.07C356.18 433.642 355.182 431.937 354.501 430.055C353.819 428.174 353.469 426.153 353.469 424.111C353.469 422.07 353.819 420.049 354.501 418.167C355.182 416.285 356.18 414.58 357.436 413.152C358.691 411.725 360.18 410.603 361.813 409.853C363.447 409.103 365.194 408.739 366.95 408.784H486.65C489.437 408.783 492.153 409.807 494.407 411.709C496.662 413.612 498.341 416.295 499.203 419.375C499.626 420.907 499.842 422.506 499.842 424.115Z" stroke="black" stroke-width="4.11" stroke-miterlimit="10"/>
<path d="M186.913 248.713L186.672 251.076C186.562 252.148 186.118 253.136 185.424 253.853C184.729 254.571 183.833 254.968 182.904 254.969H169.749C168.82 254.968 167.924 254.571 167.229 253.853C166.535 253.136 166.091 252.148 165.981 251.076L164.284 234.148C165.012 233.986 165.671 233.824 165.911 233.743C167.773 233.154 169.578 232.653 171.086 231.159C172.593 229.665 173.619 227.479 172.77 225.19C172.347 224.054 171.712 223.041 170.91 222.225C170.108 221.409 169.16 220.81 168.134 220.473C166.423 219.879 164.605 219.843 162.878 220.37L162.479 216.336C162.42 215.72 162.474 215.096 162.637 214.506C162.799 213.915 163.067 213.371 163.422 212.909C163.777 212.446 164.213 212.076 164.699 211.822C165.186 211.568 165.714 211.436 166.247 211.435H186.431C186.965 211.437 187.491 211.57 187.977 211.824C188.463 212.079 188.898 212.449 189.252 212.911C189.607 213.373 189.874 213.917 190.036 214.507C190.199 215.098 190.252 215.72 190.193 216.336L189.725 220.936" stroke="black" stroke-width="4.11" stroke-miterlimit="10"/>
<path d="M188.667 231.453L188.648 231.615" stroke="black" stroke-width="4.11" stroke-miterlimit="10"/>
<path d="M187.679 241.176V241.11" stroke="black" stroke-width="4.11" stroke-miterlimit="10"/>
<path d="M187.869 241.174C187.813 241.163 187.754 241.163 187.698 241.174C187.618 241.164 187.537 241.164 187.457 241.174C186.637 241.178 185.847 241.539 185.245 242.187C184.642 242.835 184.271 243.722 184.205 244.673C184.139 245.623 184.383 246.568 184.887 247.32C185.392 248.073 186.122 248.577 186.932 248.733C187.281 248.814 187.64 248.814 187.989 248.733C189.57 248.44 191.014 247.513 192.068 246.113C193.473 243.426 194.45 240.467 194.95 237.376C194.959 237.345 194.959 237.312 194.95 237.281C195.336 235.004 195.483 232.681 195.387 230.362M195.387 230.362C195.387 229.369 195.279 228.382 195.178 227.418C194.985 225.805 194.35 224.307 193.368 223.145C192.386 221.983 191.109 221.218 189.725 220.964C189.655 220.964 189.573 220.964 189.503 220.919C186.843 220.537 183.113 221.707 182.422 225.196C181.789 228.346 184.728 231.047 187.141 231.29C187.141 231.29 187.774 231.385 188.667 231.452C190.453 231.591 193.423 231.569 195.387 230.362ZM195.387 230.362C195.676 230.189 195.947 229.979 196.197 229.737" stroke="black" stroke-width="4.11" stroke-miterlimit="10"/>
<path d="M190.643 231.623H190.206H186.83H185.342C184.336 231.627 183.369 232.078 182.64 232.885C181.911 233.69 181.475 234.79 181.422 235.958C181.372 237.093 181.687 238.208 182.305 239.089C182.923 239.97 183.799 240.554 184.766 240.727C189.136 241.544 194.126 241.714 194.981 237.165" stroke="black" stroke-width="4.11" stroke-miterlimit="10"/>
<path d="M405.134 439.439C405.134 439.439 420.581 456.493 415.761 509.359C415.41 513.134 414.28 516.755 412.468 519.914L410.789 522.858C408.037 527.648 403.887 531.119 399.104 532.632C389.015 535.833 370.712 543.252 359.407 557.31C354.632 563.264 358.185 572.965 365.19 572.965C366.495 572.969 367.782 572.597 368.935 571.883C370.087 571.169 371.07 570.135 371.795 568.872C376.399 560.821 390.339 543.723 423.963 544.084C461.887 544.489 477.163 562.013 482.058 569.564C482.735 570.617 483.613 571.473 484.623 572.063C485.634 572.653 486.748 572.962 487.879 572.965C489.296 572.961 490.682 572.477 491.866 571.572C493.05 570.668 493.982 569.38 494.546 567.869C495.109 566.358 495.282 564.688 495.042 563.065C494.801 561.442 494.159 559.935 493.192 558.73C478.404 540.058 460.316 533.095 450.335 530.512C445.32 529.256 440.89 525.867 437.915 521.01C435.638 517.264 434.342 512.831 434.185 508.248C433.627 491.857 433.336 452.069 442.893 439.454" stroke="black" stroke-width="4.11" stroke-miterlimit="10"/>
<path d="M373.024 315.871V317.063C373.024 325.225 367.362 326.631 362.473 326.771L267.846 329.332C263.698 329.45 260.208 325.24 260.12 319.97V319.75C260.12 314.598 263.388 310.292 267.479 310.182C267.479 310.182 320.419 308.445 361.409 307.134C362.194 310.02 364.094 312.242 366.475 313.987C368.448 315.358 370.728 316.014 373.024 315.871Z" stroke="black" stroke-width="4.11" stroke-miterlimit="10"/>
<path d="M423.323 199.509C423.328 200.852 423.063 202.177 422.55 203.381L380.231 304.198C379.735 305.368 379.024 306.398 378.149 307.216C377.274 308.033 376.255 308.618 375.165 308.93C373.417 309.451 371.567 309.231 369.946 308.312C368.646 307.569 367.553 306.415 366.79 304.983C366.027 303.552 365.627 301.9 365.633 300.216C365.636 299.802 365.661 299.39 365.709 298.98C365.822 298.067 366.057 297.181 366.406 296.352L408.719 195.52C409.483 193.711 410.752 192.255 412.319 191.391C413.886 190.528 415.659 190.305 417.348 190.763C419.038 191.219 420.544 192.327 421.623 193.906C422.701 195.485 423.286 197.442 423.285 199.458L423.323 199.509Z" stroke="black" stroke-width="4.11" stroke-miterlimit="10"/>
<path d="M80.7155 189.559C80.6648 189.353 80.5951 189.154 80.5381 188.956C80.4811 188.757 80.3988 188.529 80.3481 188.308" stroke="black" stroke-width="4.11" stroke-linecap="round" stroke-linejoin="round"/>
<path d="M80.7155 189.567L82.0138 188.05L84.4965 185.128" stroke="black" stroke-width="4.11" stroke-linecap="round" stroke-linejoin="round"/>
<path d="M95.3264 193.558C95.3264 193.558 96.9921 199.335 103.357 199.726" stroke="black" stroke-width="4.11" stroke-miterlimit="10"/>
<path d="M67.0165 207.091C61.3165 210.439 54.8502 203.197 55.2999 197.228C55.5912 193.136 54.7932 190.311 52.1902 187.344C52.0192 187.145 51.8609 186.939 51.7089 186.74C50.7177 185.488 50.0736 183.918 49.8589 182.234C49.6442 180.551 49.8697 178.83 50.5055 177.297C51.6899 174.096 54.2422 172.219 52.4689 168.767C51.6905 167.275 51.1224 165.647 50.7842 163.946C50.4302 161.691 50.4967 159.374 50.9786 157.151C51.4606 154.928 52.3466 152.851 53.5772 151.059C56.1865 147.379 60.4362 148.395 63.9258 147.107C68.1248 145.554 70.0882 140.306 74.4962 138.694C76.7002 137.892 78.7458 138.253 80.9498 138.834C82.8055 139.342 84.6675 139.909 86.4725 140.571C88.2775 141.233 89.9241 141.8 91.7291 141.174C94.0915 140.372 95.9091 137.848 98.4805 137.826C101.052 137.804 103.028 139.563 104.18 142.021C106.004 145.878 106.017 151.486 104.301 154.813C102.527 158.257 98.8161 159.714 95.6241 160.458C91.5455 161.429 87.3275 161.687 83.1982 162.114L80.7978 162.798C79.8846 163.128 79.1214 163.864 78.6749 164.846C78.2284 165.829 78.1353 166.977 78.4165 168.039C79.9017 173.978 81.9448 179.709 84.5092 185.128" stroke="black" stroke-width="4.11" stroke-miterlimit="10"/>
<path d="M84.4965 207.936C84.4965 207.936 97.0618 218.63 104.225 212.735C111.388 206.84 107.341 189.558 107.341 189.558" stroke="black" stroke-width="4.11" stroke-linecap="round" stroke-linejoin="round"/>
<path d="M173.283 204.052C173.283 204.052 167.944 199.857 171.339 195.573C174.734 191.289 170.212 185.637 170.212 185.637" stroke="black" stroke-width="4.11" stroke-miterlimit="10"/>
<path d="M178.211 204.78C178.211 204.78 181.745 202.005 179.477 199.164C177.21 196.323 180.231 192.54 180.231 192.54" stroke="black" stroke-width="4.11" stroke-miterlimit="10"/>
<path d="M202.562 164.802C241.01 164.802 272.178 128.582 272.178 83.9012C272.178 39.2208 241.01 3 202.562 3C164.115 3 132.946 39.2208 132.946 83.9012C132.946 128.582 164.115 164.802 202.562 164.802Z" stroke="#AF1FFC" stroke-width="4.11" stroke-miterlimit="10"/>
<path d="M202.562 128.331C223.678 128.331 240.797 108.438 240.797 83.8989C240.797 59.3592 223.678 39.4666 202.562 39.4666C181.446 39.4666 164.328 59.3592 164.328 83.8989C164.328 108.438 181.446 128.331 202.562 128.331Z" stroke="#AF1FFC" stroke-width="4.11" stroke-miterlimit="10"/>
<path d="M202.562 91.5158C206.182 91.5158 209.117 88.1052 209.117 83.8982C209.117 79.6912 206.182 76.2806 202.562 76.2806C198.942 76.2806 196.007 79.6912 196.007 83.8982C196.007 88.1052 198.942 91.5158 202.562 91.5158Z" stroke="#AF1FFC" stroke-width="4.11" stroke-miterlimit="10"/>
<path d="M216.135 58.4643L206.014 77.4236" stroke="#AF1FFC" stroke-width="4.11" stroke-miterlimit="10"/>
<path d="M202.562 39.4666V47.3713" stroke="#AF1FFC" stroke-width="4.11" stroke-miterlimit="10"/>
<path d="M240.797 83.8997H234.349" stroke="#AF1FFC" stroke-width="4.11" stroke-miterlimit="10"/>
<path d="M202.562 128.34V120.656" stroke="#AF1FFC" stroke-width="4.11" stroke-miterlimit="10"/>
<path d="M164.322 83.8997H170.136" stroke="#AF1FFC" stroke-width="4.11" stroke-miterlimit="10"/>
<path d="M269.284 218.412C283.59 218.412 295.187 204.934 295.187 188.309C295.187 171.684 283.59 158.207 269.284 158.207C254.978 158.207 243.381 171.684 243.381 188.309C243.381 204.934 254.978 218.412 269.284 218.412Z" fill="#AF1FFC"/>
<path d="M277.802 178.255C277.437 177.276 276.945 176.368 276.346 175.561C275.319 174.15 273.885 173.222 272.313 172.951C270.74 172.68 269.136 173.085 267.802 174.089C266.932 174.749 266.204 175.633 265.677 176.674C265.15 177.715 264.836 178.883 264.762 180.088C263.398 179.507 261.909 179.457 260.519 179.946C259.13 180.434 257.914 181.434 257.056 182.796C256.198 184.158 255.745 185.806 255.764 187.494C255.783 189.181 256.273 190.816 257.162 192.151C259.018 194.962 262.172 196.81 265.028 197.884C266.526 198.441 268.069 198.821 269.632 199.018C270.424 199.121 274.94 199.827 275.332 199.018C278.151 193.895 280.152 184.511 277.802 178.255Z" fill="white"/>
<g opacity="0.72">
<path opacity="0.72" d="M333.846 175.848C341.723 175.848 348.109 168.428 348.109 159.273C348.109 150.12 341.723 142.699 333.846 142.699C325.969 142.699 319.583 150.12 319.583 159.273C319.583 168.428 325.969 175.848 333.846 175.848Z" fill="#AF1FFC"/>
<path opacity="0.72" d="M340.033 162.209C340.387 161.791 340.681 161.312 340.907 160.789C341.314 159.887 341.424 158.842 341.215 157.853C341.006 156.864 340.494 155.997 339.774 155.416C339.303 155.039 338.764 154.793 338.198 154.698C337.633 154.604 337.055 154.663 336.512 154.871C336.482 153.943 336.192 153.051 335.687 152.33C335.181 151.61 334.489 151.099 333.712 150.876C332.936 150.654 332.118 150.731 331.382 151.096C330.647 151.46 330.033 152.093 329.634 152.899C328.858 154.721 328.557 156.768 328.766 158.787C328.838 159.784 328.995 160.77 329.235 161.731C329.356 162.224 329.989 165.043 330.419 165.131C333.25 165.683 337.785 164.911 340.033 162.209Z" fill="white"/>
</g>
<path d="M313.408 237.543L306.628 254.204C304.169 260.245 306.39 267.458 311.589 270.315L325.925 278.194C331.123 281.051 337.33 278.469 339.789 272.428L346.569 255.768C349.027 249.727 346.806 242.514 341.607 239.657L327.271 231.778C322.073 228.921 315.866 231.502 313.408 237.543Z" fill="#AF1FFC"/>
<path d="M342.7 258.685L337.792 270.748C336.762 273.261 334.918 275.198 332.664 276.137C330.409 277.075 327.927 276.94 325.758 275.76L313.307 268.915C311.146 267.717 309.48 265.575 308.674 262.955C307.867 260.335 307.984 257.451 309 254.931L309.33 254.122C312.712 250.986 318.557 246.762 320.692 252.51C323.763 260.812 327.76 258.133 332.864 254.659C337.127 251.73 342.244 250.751 342.7 258.685Z" fill="white"/>
<path d="M323.415 245.865C325.531 245.865 327.247 243.871 327.247 241.412C327.247 238.952 325.531 236.959 323.415 236.959C321.299 236.959 319.583 238.952 319.583 241.412C319.583 243.871 321.299 245.865 323.415 245.865Z" fill="white"/>
<path d="M388.788 182.899C389.55 184.513 390.102 186.249 390.428 188.051C391.008 191.347 390.842 194.762 389.945 197.96C389.047 201.159 387.451 204.031 385.311 206.297C383.613 208.041 381.454 209.402 379.737 211.228C378.485 212.483 377.563 214.124 377.077 215.96C376.989 216.588 376.771 217.181 376.444 217.69C375.443 218.941 374.462 216.954 373.594 216.615C372.196 216.087 370.679 216.173 369.332 216.858C365.789 218.58 361.844 218.824 358.165 217.551C354.485 216.277 351.298 213.564 349.143 209.871C346.988 206.179 345.999 201.733 346.342 197.29C346.686 192.846 348.342 188.677 351.028 185.49C353.682 182.347 357.153 180.338 360.528 178.292C363.48 176.474 366.418 174.538 369.623 173.449C377.134 170.836 385.152 175.186 388.788 182.899Z" fill="#AF1FFC"/>
<path d="M358.539 205.634C360.533 205.634 362.149 203.756 362.149 201.439C362.149 199.122 360.533 197.244 358.539 197.244C356.546 197.244 354.929 199.122 354.929 201.439C354.929 203.756 356.546 205.634 358.539 205.634Z" fill="white"/>
<path d="M368.261 199.591C370.255 199.591 371.871 197.713 371.871 195.396C371.871 193.079 370.255 191.2 368.261 191.2C366.268 191.2 364.651 193.079 364.651 195.396C364.651 197.713 366.268 199.591 368.261 199.591Z" fill="white"/>
<path d="M377.381 193.924C379.375 193.924 380.991 192.046 380.991 189.729C380.991 187.412 379.375 185.534 377.381 185.534C375.388 185.534 373.771 187.412 373.771 189.729C373.771 192.046 375.388 193.924 377.381 193.924Z" fill="white"/>
<path d="M267.314 54.1579C267.314 54.1579 291.083 139.593 382.581 134.978C412.981 130.562 449.163 134.978 481.381 184.29C530.356 259.303 510.692 342.868 488.436 395.912" stroke="#AF1FFC" stroke-width="4.11" stroke-miterlimit="10"/>
<g opacity="0.54">
<path opacity="0.54" d="M399.573 87.7114C399.483 89.0002 399.312 90.2793 399.06 91.5386L396.21 105.905C395.336 110.321 394.354 114.943 391.644 118.167C386.577 124.173 378.154 122.797 371.111 120.979L353.821 116.518C349.85 115.495 345.816 114.443 342.257 112.154C338.697 109.865 335.607 106.119 334.783 101.489C334.15 98.0743 334.828 94.5415 335.474 91.1412L338.083 77.3485C338.951 72.8295 339.926 68.0602 342.732 64.7703C347.729 58.9191 356.031 60.2513 362.935 61.9956L380.643 66.4705C391.321 69.1495 400.422 74.905 399.573 87.7114Z" fill="#AF1FFC"/>
<path opacity="0.54" d="M375.728 88.0949C376.469 88.8949 377.015 89.9076 377.312 91.0308C377.609 92.1546 377.645 93.3492 377.419 94.4944C377.192 95.6396 376.71 96.695 376.021 97.5554C375.332 98.4151 374.46 99.0488 373.492 99.3925L368.223 101.269L362.954 103.146C361.987 103.49 360.959 103.532 359.973 103.268C358.989 103.003 358.08 102.443 357.34 101.642C356.6 100.841 356.055 99.8282 355.759 98.7043C355.462 97.5812 355.425 96.3867 355.652 95.2414L356.918 89.0001L358.153 82.7662C358.379 81.6203 358.86 80.5641 359.549 79.703C360.238 78.8426 361.11 78.2074 362.077 77.863C363.044 77.5178 364.072 77.4759 365.057 77.7393C366.043 78.0036 366.951 78.5644 367.691 79.3659L371.726 83.7304L375.728 88.0949Z" fill="white"/>
</g>
<path d="M26.1539 572.966H573.049" stroke="black" stroke-width="4.11" stroke-miterlimit="10"/>
</svg>
