<svg width="14" height="14" viewBox="0 0 14 14" fill="none" xmlns="http://www.w3.org/2000/svg">
<path d="M6.26283 2.54099H8.45243L10.8537 0.209027C10.9215 0.142794 11.0023 0.0902226 11.0912 0.0543467C11.1801 0.0184707 11.2755 0 11.3719 0C11.4682 0 11.5636 0.0184707 11.6526 0.0543467C11.7415 0.0902226 11.8222 0.142794 11.8901 0.209027L13.7732 2.03926C13.9091 2.17166 13.9854 2.35077 13.9854 2.53746C13.9854 2.72414 13.9091 2.90325 13.7732 3.03565L12.1018 4.66095H6.26283V6.07426C6.26283 6.26168 6.18593 6.44142 6.04906 6.57394C5.91218 6.70647 5.72654 6.78092 5.53296 6.78092C5.33939 6.78092 5.15375 6.70647 5.01687 6.57394C4.87999 6.44142 4.8031 6.26168 4.8031 6.07426V3.9543C4.8031 3.57947 4.95689 3.21998 5.23064 2.95494C5.5044 2.68989 5.87569 2.54099 6.26283 2.54099ZM1.88363 6.07426V8.90088L0.21224 10.5191C0.0763015 10.6515 0 10.8306 0 11.0173C0 11.204 0.0763015 11.3831 0.21224 11.5155L2.09529 13.3457C2.16315 13.412 2.24387 13.4645 2.33281 13.5004C2.42175 13.5363 2.51715 13.5548 2.6135 13.5548C2.70985 13.5548 2.80525 13.5363 2.89419 13.5004C2.98313 13.4645 3.06385 13.412 3.1317 13.3457L6.26283 10.3142H9.1823C9.37587 10.3142 9.56151 10.2397 9.69839 10.1072C9.83527 9.9747 9.91216 9.79496 9.91216 9.60754V8.90088H10.642C10.8356 8.90088 11.0212 8.82643 11.1581 8.69391C11.295 8.56139 11.3719 8.38165 11.3719 8.19423V7.48757H12.1018C12.2953 7.48757 12.481 7.41312 12.6179 7.2806C12.7547 7.14808 12.8316 6.96834 12.8316 6.78092V6.07426H7.72256V6.78092C7.72256 7.15575 7.56877 7.51523 7.29502 7.78028C7.02126 8.04533 6.64998 8.19423 6.26283 8.19423H4.8031C4.41595 8.19423 4.04466 8.04533 3.77091 7.78028C3.49716 7.51523 3.34337 7.15575 3.34337 6.78092V4.66095L1.88363 6.07426Z" fill="#FF5B84"/>
</svg>
