<svg width="15" height="22" viewBox="0 0 15 22" fill="none" xmlns="http://www.w3.org/2000/svg">
<path d="M9.99975 2.66254C9.99975 1.95639 9.71892 1.27917 9.21903 0.779841C8.71914 0.280517 8.04114 0 7.33419 0C6.62724 0 5.94924 0.280517 5.44935 0.779841C4.94946 1.27917 4.66863 1.95639 4.66863 2.66254C4.66863 3.3687 4.94946 4.04592 5.44935 4.54525C5.94924 5.04457 6.62724 5.32509 7.33419 5.32509C8.04114 5.32509 8.71914 5.04457 9.21903 4.54525C9.71892 4.04592 9.99975 3.3687 9.99975 2.66254ZM5.7057 7.04326C4.7186 6.6938 3.8523 6.03233 3.25671 5.13788L2.44455 3.91893C2.03638 3.30738 1.21172 3.14513 0.595311 3.55283C-0.0211012 3.96053 -0.183534 4.78842 0.22463 5.39997L1.04096 6.61476C1.79481 7.74218 2.82356 8.62831 4.00223 9.21074V19.9691C4.00223 20.7054 4.59782 21.3004 5.33502 21.3004C6.07221 21.3004 6.6678 20.7054 6.6678 19.9691V15.9753H8.00058V19.9691C8.00058 20.7054 8.59617 21.3004 9.33336 21.3004C10.0706 21.3004 10.6661 20.7054 10.6661 19.9691V9.21906C11.8781 8.62831 12.9319 7.71306 13.6941 6.54819L14.4521 5.38749C14.8519 4.77178 14.677 3.94805 14.0606 3.54451C13.4442 3.14097 12.6195 3.3157 12.2155 3.93557L11.4575 5.09212C10.5495 6.48163 9.00433 7.322 7.34252 7.322C6.81774 7.322 6.30545 7.23879 5.81815 7.0807C5.78067 7.06822 5.74318 7.05158 5.7057 7.04326Z" fill="#FF5B84"/>
</svg>
