<svg width="13" height="13" viewBox="0 0 13 13" fill="none" xmlns="http://www.w3.org/2000/svg">
<path d="M6.5 0C7.36195 0 8.1886 0.33152 8.7981 0.92163C9.40759 1.51174 9.75 2.3121 9.75 3.14664C9.75 3.98118 9.40759 4.78155 8.7981 5.37166C8.1886 5.96177 7.36195 6.29329 6.5 6.29329C5.63805 6.29329 4.8114 5.96177 4.2019 5.37166C3.59241 4.78155 3.25 3.98118 3.25 3.14664C3.25 2.3121 3.59241 1.51174 4.2019 0.92163C4.8114 0.33152 5.63805 0 6.5 0ZM6.5 7.86661C10.0913 7.86661 13 9.27473 13 11.0133V12.5866H0V11.0133C0 9.27473 2.90875 7.86661 6.5 7.86661Z" fill="#4254FF"/>
</svg>
