<svg width="571" height="576" viewBox="0 0 571 576" fill="none" xmlns="http://www.w3.org/2000/svg">
<path d="M114.05 180.189C114.05 180.189 79.9577 64.0462 198.872 78.2214C317.787 92.3966 260.971 40.9897 305.906 9.0882C350.841 -22.8133 483.239 76.4349 427.848 172.161C372.456 267.887 516.369 180.321 546.389 324.275C564.914 413.11 518.953 478.495 481.035 515.559" stroke="#CCDDE2" stroke-width="5.47" stroke-miterlimit="10"/>
<path d="M492.631 404.574C483.695 344.993 452.054 291.675 400.646 272.593C387.496 267.739 374.048 264.021 360.417 261.473V261.553C359.706 266.499 358.023 271.193 355.496 275.276C350.138 283.727 342.753 290.669 334.203 294.286C325.476 298.005 314.665 298.486 306.564 292.638C301.688 289.123 296.957 282.932 296.102 276.253C295.126 268.728 298.458 261.604 303.144 256.631C263.422 257.003 226.055 264.528 196.111 273.096C197.149 278.099 198.586 282.981 200.405 287.679C202.95 294.23 206.547 300.167 211.007 305.18C216.57 298.835 221.44 291.734 225.51 284.034C229.404 285.501 232.838 288.254 235.384 291.95C237.929 295.646 239.476 300.122 239.83 304.822V305.063C241.401 322.133 227.125 334.959 215.13 342.849C201.273 352.022 185.826 358.891 170.651 364.6C164.394 366.963 156.262 368.975 149.656 366.511C148.945 366.25 148.251 365.93 147.579 365.555C140.992 361.837 136.584 354.042 133.145 346.918C123.347 326.683 116.976 304.625 112.657 281.985C82.681 286.396 79.2484 263.026 77.4687 257.295L51.825 339.83C50.4798 345.763 50.3348 351.972 51.3994 357.979C52.4647 363.987 54.7124 369.634 57.9696 374.485C61.2262 379.336 65.4062 383.263 70.1872 385.964C74.9689 388.664 80.2243 390.067 85.55 390.063H191.709L239.931 532.471L253.599 572.889H331.663C325.33 572.889 321.866 571.11 319.351 568.208C316.755 565.217 315.293 561.163 315.285 556.935C315.285 548.185 321.524 541.01 331.663 541.01H332.379C331.613 541.01 330.878 540.93 330.112 540.849C330.587 540.79 331.058 540.7 331.524 540.58C331.022 540.566 330.521 540.522 330.023 540.448C334.596 539.826 338.835 537.374 341.996 533.519C345.158 529.665 347.042 524.653 347.319 519.361C347.332 519.086 347.332 518.811 347.319 518.537V518.114C347.21 512.688 345.409 507.488 342.245 503.465C339.081 499.442 334.765 496.864 330.086 496.202C330.618 496.151 331.125 496.1 331.638 496.1C331.176 495.969 330.663 495.888 330.181 495.808C330.941 495.728 331.708 495.67 332.442 495.67L389.556 496.02L400.063 496.071H412.534C413.11 496.071 413.693 496.071 414.244 496.151L432.769 496.26L445.144 496.34C450.316 496.39 455.26 498.796 458.896 503.033C462.531 507.269 464.561 512.99 464.543 518.945C464.537 522.312 463.858 525.632 462.561 528.65C467.871 527.868 472.794 525.041 476.532 520.629C485.443 510.151 489.281 494.466 491.935 480.525C496.628 455.689 496.349 429.519 492.631 404.574ZM348.333 406.251C337.572 425.319 319.25 423.605 319.25 423.605C319.25 423.605 317.73 425.311 314.183 418.049C310.637 410.786 300.535 405.821 300.535 405.821C299.731 413.112 298.065 424.196 281.535 409.831C265.005 395.466 269.989 374.524 271.402 363.463C272.814 352.401 278.444 348.733 278.444 348.733L285.094 344.694C285.094 344.694 265.86 338.999 264.935 338.787C264.011 338.576 246.879 322.06 264.264 317.7C281.649 313.339 308.749 330.679 313.987 334.106C319.225 337.533 349.834 367.342 349.834 367.342C349.834 367.342 359.15 387.212 348.333 406.251Z" fill="#353642"/>
<path d="M112.631 281.998C112.631 281.998 127.128 279.971 132.556 268.056L127.825 298.616C127.825 298.616 185.496 276.011 196.073 273.094C196.073 273.094 199.48 298.39 213.046 305.178L227.043 284.688C227.043 284.688 244.593 289.793 239.792 317.326C234.991 344.86 168.593 367.873 157.332 367.34C146.071 366.808 133.949 358.831 121.536 315.963L112.631 281.998Z" fill="#353642"/>
<path d="M136.248 213.923C139.922 220.806 143.614 227.675 147.427 234.456C149.776 238.634 154.058 244.592 149.504 248.959C148.022 250.268 146.232 251.03 144.368 251.147C141.442 251.446 138.37 250.637 136.59 247.742L127.724 230.825C125.957 227.451 123.15 224.967 119.865 223.867C116.578 222.767 113.053 223.133 109.99 224.889" stroke="black" stroke-width="5.47" stroke-miterlimit="10"/>
<path d="M169.783 236.204C172.101 242.548 170.531 246.638 167.82 248.695C163.387 252.042 157.452 250.437 154.311 245.552L136.28 213.957" stroke="black" stroke-width="5.47" stroke-miterlimit="10"/>
<path d="M151.512 204.735C158.073 213.923 166.351 230.985 170.93 238.109C175.509 245.233 182.589 240.938 182.589 240.938C188.34 237.373 187.365 231.459 184.85 224.277C178.656 206.645 169.815 194.92 159.954 187.235C129.396 163.434 98.0457 180.993 88.7167 222.075L51.825 339.829C50.4798 345.763 50.3348 351.972 51.3994 357.979C52.4647 363.987 54.7124 369.634 57.9696 374.485C61.2262 379.336 65.4062 383.263 70.1872 385.964C74.9689 388.664 80.2243 390.066 85.55 390.062H191.709L253.618 572.896" stroke="black" stroke-width="5.47" stroke-miterlimit="10"/>
<path d="M189.417 216.19C197.017 213.156 196.668 199.2 185.883 194.489C173.97 189.283 152.816 181.918 147.503 180.081C147.47 180.052 147.43 180.034 147.389 180.03C147.015 179.898 146.755 179.789 146.553 179.738L146.255 179.629" stroke="black" stroke-width="5.47" stroke-miterlimit="10"/>
<path d="M301.707 355.731C295.057 346.529 276.855 341.315 264.973 338.792C262.976 338.361 261.156 337.193 259.784 335.467C258.414 333.74 257.568 331.547 257.373 329.218C257.235 327.648 257.393 326.061 257.836 324.566C258.544 322.272 259.901 320.317 261.689 319.016C263.477 317.716 265.593 317.143 267.697 317.391C287.963 319.754 308.863 327.096 324.323 342.912C324.323 342.912 399.265 408.757 408.214 415.166C411.907 417.748 415.352 414.7 412.85 410.645L412.065 409.1C407.66 400.396 402.447 392.269 396.517 384.862" stroke="black" stroke-width="5.47" stroke-miterlimit="10"/>
<path d="M303.094 256.622C208.841 257.527 127.825 298.608 127.825 298.608L135.913 246.414" stroke="black" stroke-width="5.47" stroke-miterlimit="10"/>
<path d="M449.482 540.687C449.482 540.687 439.216 538.011 436.486 547.475C433.757 556.94 430.907 571.998 450.534 572.887C470.161 573.777 458.634 569.336 457.5 562.022C456.367 554.709 449.482 540.687 449.482 540.687Z" fill="#353642"/>
<path d="M292.65 367.742C292.65 367.742 281.573 358.073 271.598 367.873C271.178 368.299 270.811 368.79 270.509 369.332" stroke="black" stroke-width="5.47" stroke-miterlimit="10"/>
<g opacity="0.77">
<path opacity="0.77" d="M154.273 245.518C157.44 250.41 163.368 252.007 167.782 248.653C170.461 246.611 172.032 242.543 169.771 236.257C170.182 236.95 170.556 237.562 170.923 238.124C175.496 245.277 182.583 240.968 182.583 240.968C188.334 237.402 187.365 231.488 184.85 224.299C182.39 217.178 179.162 210.441 175.243 204.246C177.808 201.483 180.854 198.69 184.065 199.915C187.529 201.242 188.498 206.244 188.891 210.415C189.075 212.355 189.258 214.273 189.442 216.212L192.216 244.767C193.141 254.246 194.065 263.864 196.073 273.117C197.111 278.12 198.548 283.002 200.367 287.701C202.912 294.251 206.509 300.188 210.969 305.201C216.532 298.856 221.402 291.755 225.472 284.055C229.366 285.522 232.8 288.275 235.346 291.971C237.891 295.668 239.438 300.143 239.792 304.843V305.084C241.363 322.154 227.087 334.98 215.092 342.87C201.235 352.043 185.788 358.912 170.613 364.621C164.356 366.984 156.224 368.996 149.618 366.532C148.907 366.271 148.213 365.951 147.541 365.577C140.954 361.858 136.546 354.063 133.107 346.939C116.64 312.85 109.8 273.708 106.197 234.945C113.404 233.8 120.586 232.524 127.679 230.766C127.679 230.766 127.679 230.825 127.724 230.847L135.9 246.458L136.571 247.756C138.345 250.673 141.416 251.453 144.349 251.162C146.213 251.055 148.004 250.292 149.479 248.974C154.026 244.599 149.757 238.663 147.401 234.485" fill="white"/>
<path opacity="0.77" d="M154.273 245.518C157.44 250.41 163.368 252.007 167.782 248.653C170.461 246.611 172.032 242.543 169.771 236.257C170.182 236.95 170.556 237.562 170.923 238.124C175.496 245.277 182.583 240.968 182.583 240.968C188.334 237.402 187.365 231.488 184.85 224.299C182.39 217.178 179.162 210.441 175.243 204.246C177.808 201.483 180.854 198.69 184.065 199.915C187.529 201.242 188.498 206.244 188.891 210.415C189.075 212.355 189.258 214.273 189.442 216.212L192.216 244.767C193.141 254.246 194.065 263.864 196.073 273.117C197.111 278.12 198.548 283.002 200.367 287.701C202.912 294.251 206.509 300.188 210.969 305.201C216.532 298.856 221.402 291.755 225.472 284.055C229.366 285.522 232.8 288.275 235.346 291.971C237.891 295.668 239.438 300.143 239.792 304.843V305.084C241.363 322.154 227.087 334.98 215.092 342.87C201.235 352.043 185.788 358.912 170.613 364.621C164.356 366.984 156.224 368.996 149.618 366.532C148.907 366.271 148.213 365.951 147.541 365.577C140.954 361.858 136.546 354.063 133.107 346.939C116.64 312.85 109.8 273.708 106.197 234.945C113.404 233.8 120.586 232.524 127.679 230.766C127.679 230.766 127.679 230.825 127.724 230.847L135.9 246.458L136.571 247.756C138.345 250.673 141.416 251.453 144.349 251.162C146.213 251.055 148.004 250.292 149.479 248.974C154.026 244.599 149.757 238.663 147.401 234.485" fill="#AF1FFC"/>
<path opacity="0.77" d="M156.217 247.829C159.023 252.204 163.817 251.65 167.782 248.653C170.176 246.83 172.139 247.363 170.119 241.741C170.493 242.353 170.543 240.282 170.873 240.742C174.958 247.129 170.923 238.102 170.923 238.102C176.623 246.393 189.03 238.583 186.757 232.174C184.35 225.268 181.817 215.06 178.606 209.956C181.139 207.2 180.651 207.608 183.875 209.803C184.741 210.443 185.466 211.307 185.992 212.326C186.519 213.344 186.833 214.49 186.909 215.673C187.168 218.451 187.428 221.112 187.688 223.825L190.158 249.346C190.987 257.826 191.811 266.394 193.603 274.648C194.53 279.112 195.815 283.466 197.441 287.657C199.708 293.425 206.992 303.028 210.969 307.425C215.915 301.774 221.843 291.383 225.472 284.478C232.439 286.942 232.135 294.613 232.629 302.991V303.21C234.035 318.443 221.292 329.883 210.614 336.935C198.239 345.123 184.451 351.248 170.904 356.352C165.318 358.467 158.06 360.29 152.164 358.059C151.528 357.828 150.907 357.542 150.308 357.206C144.431 353.881 140.492 346.931 137.42 340.566C123.974 312.762 117.736 281.196 114.303 249.55C114.051 247.182 114.608 244.794 115.856 242.89C117.103 240.985 118.944 239.713 120.991 239.342C124.848 238.612 128.693 237.883 132.512 236.906L132.619 236.964L139.915 250.899C141.505 253.488 141.765 251.46 144.38 251.198C146.033 251.03 149.238 250.658 150.517 249.426C154.577 245.532 152.284 243.921 150.182 240.195" fill="#AF1FFC"/>
</g>
<path d="M291.314 381.816C291.314 381.816 270.281 373.853 269.964 387.241" stroke="black" stroke-width="5.47" stroke-miterlimit="10"/>
<path opacity="0.54" d="M103.043 518.191L61.7937 396.521C61.2826 394.166 61.2446 391.709 61.6816 389.335C62.1192 386.961 63.0211 384.733 64.3181 382.82C65.6158 380.907 67.2745 379.36 69.1695 378.296C71.0638 377.232 73.1443 376.68 75.252 376.68H239.095C242.774 376.679 246.346 378.104 249.236 380.727C252.126 383.348 254.164 387.014 255.024 391.132L300.18 512.773C300.669 515.12 300.688 517.563 300.239 519.92C299.788 522.276 298.881 524.485 297.583 526.38C296.285 528.275 294.632 529.806 292.746 530.86C290.861 531.913 288.792 532.46 286.697 532.461H118.933C115.281 532.464 111.734 531.06 108.855 528.474C105.976 525.889 103.93 522.269 103.043 518.191Z" fill="white"/>
<path d="M298.16 402.339C298.16 402.339 301.574 405.942 300.275 411.09C299.313 414.903 296.019 417.309 292.758 416.004C282.371 411.87 273.017 404.848 270.737 392.911C269.659 386.868 269.426 380.665 270.046 374.536C270.547 368.856 271.275 362.723 272.934 357.32C275.468 349.022 283.226 343.24 290.756 347.236" stroke="black" stroke-width="5.47" stroke-miterlimit="10"/>
<path d="M103.043 518.191L61.7937 396.521C61.2826 394.166 61.2446 391.709 61.6816 389.335C62.1192 386.961 63.0211 384.733 64.3181 382.82C65.6158 380.907 67.2745 379.36 69.1695 378.296C71.0638 377.232 73.1443 376.68 75.252 376.68H239.095C242.774 376.679 246.346 378.104 249.236 380.727C252.126 383.348 254.164 387.014 255.024 391.132L300.18 512.773C300.669 515.12 300.688 517.563 300.239 519.92C299.788 522.276 298.881 524.485 297.583 526.38C296.285 528.275 294.632 529.806 292.746 530.86C290.861 531.913 288.792 532.46 286.697 532.461H118.933C115.281 532.464 111.734 531.06 108.855 528.474C105.976 525.889 103.93 522.269 103.043 518.191Z" fill="#AF1FFC"/>
<path d="M103.043 518.191L61.7937 396.521C61.2826 394.166 61.2446 391.709 61.6816 389.335C62.1192 386.961 63.0211 384.733 64.3181 382.82C65.6158 380.907 67.2745 379.36 69.1695 378.296C71.0638 377.232 73.1443 376.68 75.252 376.68H239.095C242.774 376.679 246.346 378.104 249.236 380.727C252.126 383.348 254.164 387.014 255.024 391.132L300.18 512.773C300.669 515.12 300.688 517.563 300.239 519.92C299.788 522.276 298.881 524.485 297.583 526.38C296.285 528.275 294.632 529.806 292.746 530.86C290.861 531.913 288.792 532.46 286.697 532.461H118.933C115.281 532.464 111.734 531.06 108.855 528.474C105.976 525.889 103.93 522.269 103.043 518.191Z" stroke="black" stroke-width="5.47" stroke-linecap="square" stroke-linejoin="round"/>
<path d="M109.078 513.291L71.0213 400.998C70.5508 398.825 70.5166 396.558 70.9206 394.369C71.3247 392.179 72.1569 390.123 73.3545 388.36C74.5515 386.596 76.0823 385.169 77.8297 384.187C79.5777 383.206 81.4967 382.695 83.441 382.695H234.592C237.986 382.694 241.281 384.009 243.947 386.427C246.612 388.845 248.493 392.226 249.286 396.025L290.953 508.252C291.402 510.418 291.42 512.672 291.005 514.847C290.589 517.021 289.751 519.059 288.553 520.806C287.356 522.554 285.83 523.967 284.09 524.939C282.35 525.911 280.441 526.416 278.508 526.416H123.734C120.37 526.42 117.102 525.13 114.448 522.753C111.793 520.375 109.904 517.045 109.078 513.291Z" fill="#AF1FFC"/>
<path d="M432.566 495.675L461.547 572.888" stroke="black" stroke-width="5.47" stroke-miterlimit="10"/>
<path d="M570.05 572.888H0.0500031" stroke="black" stroke-width="5.47" stroke-miterlimit="10"/>
<path d="M300.484 224.399C295.785 229.744 288.768 229.737 284.771 224.793" stroke="black" stroke-width="5.47" stroke-miterlimit="10"/>
<path d="M175.243 204.223C177.808 201.459 180.854 198.667 184.065 199.892C187.529 201.219 188.498 206.221 188.891 210.392C190.001 221.854 191.11 233.305 192.216 244.744C193.622 259.328 195.104 274.26 200.367 287.663C202.912 294.213 206.509 300.15 210.969 305.163" stroke="black" stroke-width="5.47" stroke-miterlimit="10"/>
<path d="M239.792 305.075V304.835C239.438 300.135 237.891 295.659 235.346 291.963C232.8 288.267 229.366 285.514 225.472 284.046C221.402 291.747 216.532 298.848 210.969 305.192C196.385 321.888 177.651 332.945 157.364 336.831C158.339 341.301 160.347 345.37 161.734 349.672C163.121 353.974 163.811 358.954 162.126 363.103C159.998 368.397 153.893 367.704 149.65 366.53C149.605 366.53 149.58 366.53 149.536 366.53" stroke="black" stroke-width="5.47" stroke-miterlimit="10"/>
<path d="M127.692 230.759C120.599 232.517 113.417 233.793 106.209 234.937C109.813 273.7 116.628 312.843 133.12 346.932C136.559 354.056 140.967 361.85 147.553 365.569C148.225 365.945 148.919 366.264 149.631 366.524C156.236 369.026 164.368 366.977 170.626 364.614C185.826 358.897 201.247 352.036 215.105 342.863C227.068 334.966 241.344 322.147 239.805 305.077C239.656 303.197 239.322 301.343 238.81 299.55" stroke="black" stroke-width="5.47" stroke-miterlimit="10"/>
<path d="M246.303 153.435C247.365 158.538 249.792 163.127 253.24 166.557C256.689 169.988 260.985 172.085 265.524 172.554C265.901 170.45 266.719 168.482 267.906 166.824C272.972 159.947 275.132 172.847 291.339 163.586C313.797 150.723 322.322 158.103 322.322 158.103C323.069 158.744 322.955 164.664 323.082 165.744C323.715 171.891 324.285 178.008 324.912 184.148C325.292 187.896 325.666 191.616 326.02 195.334C326.326 194.701 326.664 194.09 327.034 193.503C329.079 185.169 332.734 175.326 340.612 179.562C342.208 180.458 343.597 181.774 344.666 183.404C349.891 191.309 345.932 198.943 340.467 204.594C339.097 206.348 337.565 207.924 335.9 209.298C336.8 211.442 340.473 219.951 340.473 219.98C340.853 220.841 353.691 204.113 354.647 202.29C356.076 197.824 356.842 193.114 356.914 188.356C357.123 168.792 350.207 146.019 336.445 134.797C333.031 132.019 334.121 129.343 333.912 125.566C333.897 125.362 333.829 125.168 333.717 125.009C333.604 124.85 333.453 124.734 333.282 124.676C333.111 124.619 332.929 124.622 332.76 124.686C332.591 124.75 332.443 124.871 332.335 125.034C328.022 130.751 317.344 130.182 317.344 130.182C280.281 119.493 267.823 138.466 260.344 141.849C257.292 143.18 253.932 143.244 250.844 142.032C250.662 143.208 250.204 144.306 249.52 145.206C248.835 146.105 247.951 146.773 246.961 147.136L247.151 149.111C247.313 150.623 247.013 152.151 246.303 153.435Z" fill="#AF1FFC"/>
<path d="M265.55 172.586C261.011 172.117 256.714 170.02 253.266 166.59C249.817 163.159 247.39 158.569 246.328 153.467C245.912 151.51 245.649 149.514 245.543 147.503L245.834 147.466C246.232 147.432 246.624 147.333 246.999 147.174C247.989 146.811 248.873 146.144 249.558 145.244C250.242 144.345 250.7 143.247 250.882 142.07C250.998 141.418 251.021 140.748 250.951 140.087L250.001 130.433C250.001 130.433 256.702 136.171 264.137 132.817C271.573 129.463 284.056 110.49 321.137 121.15C321.137 121.15 329.51 121.719 333.804 116.002C333.912 115.839 334.06 115.718 334.23 115.654C334.399 115.59 334.58 115.587 334.751 115.645C334.922 115.702 335.074 115.818 335.186 115.977C335.299 116.136 335.366 116.33 335.381 116.534C335.603 120.319 336.819 122.995 340.239 125.766C354.001 136.995 360.917 159.76 360.702 179.324C360.638 187.44 358.295 195.453 354.679 202.329C353.722 204.152 340.885 220.88 340.505 220.019C340.505 220.019 336.831 211.481 335.932 209.337L335.717 208.863L336.128 208.549C337.657 207.354 339.117 206.046 340.498 204.634C345.958 198.982 349.922 191.348 344.697 183.444C343.628 181.813 342.239 180.496 340.644 179.601C332.74 175.364 329.111 185.208 327.065 193.543C326.668 195.135 326.424 196.774 326.337 198.428C326.242 197.407 326.147 196.423 326.052 195.402C325.697 191.683 325.324 187.965 324.944 184.217C324.31 178.077 323.715 171.959 323.113 165.812C323.018 164.762 323.113 158.812 322.353 158.17C322.353 158.17 313.822 150.791 291.371 163.654C275.164 172.914 273.004 160.008 267.937 166.891C266.75 168.55 265.933 170.518 265.556 172.623C265.44 173.299 265.366 173.983 265.334 174.672C265.322 174.761 265.322 174.852 265.334 174.941C265.258 176.451 265.233 177.953 265.201 179.426C265.081 193.638 266.436 208.484 271.281 221.682C277.171 237.68 292.758 253.459 308.965 246C314.031 243.659 318.572 239.889 322.727 235.886" stroke="black" stroke-width="5.47" stroke-miterlimit="10"/>
<path d="M276.641 207.247C278.252 206.626 279.03 204.302 278.378 202.057C277.725 199.811 275.889 198.494 274.277 199.115C272.665 199.736 271.887 202.06 272.54 204.305C273.193 206.551 275.029 207.868 276.641 207.247Z" fill="black"/>
<path d="M300.755 206.358C302.367 205.737 303.145 203.414 302.493 201.168C301.84 198.922 300.004 197.605 298.392 198.226C296.78 198.848 296.002 201.171 296.655 203.417C297.307 205.662 299.143 206.979 300.755 206.358Z" fill="black"/>
<path d="M291.535 211.167C291.535 211.167 283.511 216.41 283.023 210.97C282.871 209.293 280.908 192.865 280.908 192.865C280.908 192.865 274.423 184.953 264.486 190.801" stroke="black" stroke-width="5.47" stroke-miterlimit="10"/>
<path d="M289.73 188.261C289.73 188.261 302.688 180.809 311.264 191.55" stroke="black" stroke-width="5.47" stroke-miterlimit="10"/>
<path d="M301.612 247.829L303.1 256.623C298.407 261.603 295.088 268.742 296.057 276.26C296.919 282.924 301.656 289.13 306.514 292.622C314.633 298.456 325.431 297.997 334.171 294.285C342.715 290.639 350.106 283.719 355.464 275.275C357.987 271.193 359.668 266.503 360.379 261.56V261.472" stroke="black" stroke-width="5.47" stroke-miterlimit="10"/>
<path d="M303.1 256.622L306.001 272.504" stroke="black" stroke-width="5.47" stroke-miterlimit="10"/>
<path d="M344.121 216.19L348.504 249.696C348.936 252.976 350.376 255.968 352.562 258.129C354.748 260.29 357.535 261.476 360.417 261.472C374.057 264.017 387.512 267.731 400.671 272.585C452.079 291.675 483.72 344.992 492.657 404.566C496.374 429.511 496.653 455.674 491.985 480.48C489.332 494.444 485.494 510.128 476.583 520.585C465.012 534.22 447.253 528.606 433.579 522.444C391.127 503.435 355.819 469.615 325.33 430.896C309.028 410.188 287.963 393.592 287.963 393.592" stroke="black" stroke-width="5.47" stroke-miterlimit="10"/>
<path d="M123.107 488.159C118.344 488.108 114.196 483.682 113.125 477.52C111.01 465.402 110.453 446.662 125.887 442.571C145.172 437.467 160.005 461.646 167.275 476.93C169.72 482.034 166.952 488.597 162.399 488.597L123.107 488.159Z" fill="#D7E8F0"/>
<path d="M129.474 432.281C133.567 429.144 133.631 420.967 129.614 414.017C125.597 407.067 119.022 403.975 114.927 407.112C110.833 410.249 110.77 418.426 114.787 425.376C118.804 432.326 125.379 435.418 129.474 432.281Z" fill="#D7E8F0"/>
<path d="M446.404 541.087C446.107 541.138 445.771 541.189 445.48 541.269H445.366L400.317 541L332.721 540.599C332.461 540.599 332.208 540.599 331.955 540.599C331.452 540.585 330.951 540.541 330.454 540.467C335.033 539.855 339.279 537.402 342.443 533.541C345.606 529.68 347.486 524.657 347.75 519.358C347.763 519.083 347.763 518.809 347.75 518.534V518.111C347.732 512.926 346.162 507.906 343.306 503.896C340.45 499.887 336.482 497.132 332.069 496.097C331.606 495.966 331.1 495.885 330.612 495.805C331.378 495.725 332.138 495.667 332.879 495.667L389.987 496.017L400.5 496.068L414.681 496.148C419.536 496.658 424.051 499.235 427.344 503.376C430.636 507.515 432.469 512.92 432.484 518.534C432.484 519.593 432.415 520.651 432.275 521.698C431.6 527.042 429.281 531.93 425.741 535.472C422.2 539.014 417.674 540.975 412.983 541H447.297C445.321 541 445.872 541 446.404 541.087Z" fill="white"/>
<path d="M355.027 568.208C356.314 569.698 357.845 570.879 359.531 571.683C361.217 572.486 363.025 572.896 364.85 572.889H331.676C325.343 572.889 321.885 571.11 319.364 568.208C316.774 565.213 315.315 561.161 315.304 556.935C315.304 548.185 321.536 541.01 331.676 541.01H364.85C362.111 541.005 359.433 541.936 357.154 543.686C354.876 545.435 353.099 547.924 352.051 550.837C351.002 553.75 350.728 556.956 351.264 560.049C351.799 563.141 353.12 565.98 355.059 568.208H355.027Z" fill="#D7E8F0"/>
<path d="M464.587 518.935C464.579 522.303 463.898 525.623 462.599 528.64C461.67 530.921 460.397 532.992 458.837 534.758C456.265 537.692 453.035 539.745 449.508 540.686C448.054 541.072 446.566 541.269 445.074 541.269C445.378 541.189 445.708 541.138 445.999 541.087C445.467 541.029 444.916 541.007 446.898 541.007H412.578C417.272 540.986 421.803 539.025 425.345 535.481C428.888 531.937 431.208 527.046 431.882 521.698C432.022 520.651 432.092 519.593 432.091 518.534C432.076 512.92 430.243 507.514 426.949 503.373C423.655 499.233 419.138 496.657 414.282 496.148L432.807 496.257L445.182 496.337C450.354 496.388 455.298 498.793 458.934 503.027C462.57 507.261 464.603 512.98 464.587 518.935Z" fill="#AF1FFC"/>
<path d="M464.587 518.929C464.549 524.887 462.461 530.584 458.781 534.773C455.101 538.962 450.129 541.301 444.954 541.278L332.271 540.607C331.518 540.607 330.764 540.542 330.004 540.454C334.754 539.834 339.141 537.23 342.335 533.135C345.528 529.04 347.306 523.738 347.331 518.234C347.356 512.731 345.626 507.408 342.471 503.274C339.314 499.14 334.951 496.483 330.207 495.807C330.96 495.716 331.717 495.672 332.474 495.675L445.157 496.346C450.331 496.387 455.28 498.786 458.922 503.018C462.564 507.25 464.601 512.971 464.587 518.929Z" stroke="black" stroke-width="5.47" stroke-linecap="square" stroke-linejoin="round"/>
<path d="M432.078 518.527C432.068 524.484 430.009 530.193 426.35 534.405C422.692 538.617 417.733 540.989 412.559 541H332.385C331.628 540.995 330.871 540.946 330.118 540.854C334.864 540.205 339.239 537.575 342.414 533.461C345.588 529.346 347.341 524.034 347.341 518.531C347.341 513.028 345.588 507.716 342.414 503.601C339.239 499.487 334.864 496.856 330.118 496.207C330.872 496.127 331.632 496.068 332.385 496.068H412.559C417.73 496.082 422.686 498.452 426.344 502.66C430.002 506.869 432.063 512.573 432.078 518.527Z" stroke="black" stroke-width="5.47" stroke-linecap="square" stroke-linejoin="round"/>
<path d="M315.304 556.939C315.304 559.031 315.662 561.101 316.357 563.034C317.053 564.965 318.072 566.72 319.358 568.198C321.891 571.114 325.33 572.886 331.67 572.886H446.892C444.91 572.886 445.448 572.843 445.986 572.784C442.615 572.328 439.507 570.462 437.251 567.541C434.995 564.62 433.749 560.848 433.749 556.939C433.749 553.031 434.995 549.259 437.251 546.338C439.507 543.417 442.615 541.551 445.986 541.094C445.448 541.036 444.91 540.992 446.892 540.992H331.67C321.524 540.999 315.304 548.175 315.304 556.939Z" stroke="black" stroke-width="5.47" stroke-linecap="square" stroke-linejoin="round"/>
<path d="M350.961 556.939C350.969 561.166 352.432 565.217 355.027 568.205C357.623 571.194 361.141 572.877 364.812 572.886H444.378C444.91 572.886 445.448 572.843 445.986 572.784C442.615 572.328 439.507 570.462 437.251 567.541C434.995 564.62 433.749 560.848 433.749 556.939C433.749 553.031 434.995 549.259 437.251 546.338C439.507 543.417 442.615 541.551 445.986 541.094C445.448 541.036 444.91 540.992 444.378 540.992H364.812C361.142 541.004 357.624 542.688 355.029 545.676C352.433 548.664 350.971 552.714 350.961 556.939Z" stroke="black" stroke-width="5.47" stroke-linecap="square" stroke-linejoin="round"/>
<path d="M221.983 435.27H186.44C184.814 435.268 183.223 434.719 181.863 433.694C180.503 432.669 179.43 431.21 178.777 429.495C178.525 428.857 178.416 428.156 178.463 427.457C178.509 426.757 178.709 426.084 179.043 425.497C179.376 424.91 179.834 424.431 180.372 424.102C180.91 423.774 181.511 423.607 182.121 423.618H219.905C218.126 427.067 219.031 431.858 221.983 435.27Z" fill="#D7E8F0"/>
<path d="M244.966 431.054C244.964 432.17 244.579 433.239 243.894 434.027C243.209 434.816 242.281 435.26 241.312 435.262H221.983C219.031 431.856 218.126 427.066 219.905 423.595H236.974C238.598 423.596 240.187 424.139 241.549 425.158C242.91 426.178 243.985 427.632 244.643 429.341C244.848 429.883 244.957 430.464 244.966 431.054Z" fill="#AF1FFC"/>
<path d="M236.074 435.27C235.974 435.492 235.858 435.704 235.726 435.904C233.193 439.893 227.689 440.279 223.414 436.677C222.909 436.248 222.43 435.777 221.983 435.27C219.031 431.864 218.126 427.074 219.905 423.603C220.005 423.381 220.122 423.168 220.254 422.969C222.787 418.951 228.265 418.593 232.54 422.166C233.055 422.61 233.54 423.098 233.991 423.625C236.917 427.015 237.829 431.777 236.074 435.27Z" fill="white"/>
<path d="M253.903 456.745C253.896 457.862 253.506 458.93 252.818 459.717C252.13 460.504 251.199 460.945 250.229 460.945H212.932C214.731 457.46 213.832 452.706 210.874 449.279H245.91C247.537 449.279 249.128 449.825 250.49 450.849C251.852 451.873 252.925 453.331 253.58 455.046C253.789 455.581 253.898 456.159 253.903 456.745Z" fill="#AF1FFC"/>
<path d="M212.932 460.943H195.383C193.758 460.945 192.168 460.402 190.806 459.382C189.445 458.362 188.37 456.908 187.713 455.197C187.506 454.662 187.396 454.085 187.39 453.498C187.389 452.947 187.483 452.4 187.666 451.89C187.849 451.38 188.118 450.917 188.457 450.526C188.795 450.136 189.198 449.827 189.641 449.616C190.084 449.406 190.559 449.298 191.038 449.298H210.874C213.832 452.704 214.75 457.458 212.932 460.943Z" fill="#D7E8F0"/>
<path d="M212.932 460.944C212.85 461.173 212.741 461.389 212.609 461.586C210.076 465.596 204.591 465.961 200.323 462.381C199.806 461.937 199.319 461.449 198.866 460.922C195.934 457.517 195.034 452.763 196.789 449.255C196.89 449.031 197.007 448.816 197.137 448.614C199.67 444.625 205.174 444.239 209.443 447.848C209.951 448.273 210.429 448.743 210.874 449.255C213.832 452.704 214.75 457.459 212.932 460.944Z" fill="white"/>
<path d="M225.358 486.445H203.027C201.403 486.443 199.815 485.899 198.454 484.879C197.092 483.859 196.017 482.407 195.357 480.699C195.106 480.059 194.999 479.356 195.046 478.656C195.093 477.955 195.293 477.28 195.626 476.691C195.961 476.104 196.418 475.622 196.956 475.291C197.495 474.96 198.097 474.792 198.708 474.8H223.281C221.52 478.293 222.426 483.04 225.358 486.445Z" fill="#AF1FFC"/>
<path d="M261.547 482.273C261.542 483.382 261.155 484.445 260.472 485.226C259.788 486.008 258.862 486.445 257.899 486.444H225.358C222.426 483.039 221.52 478.285 223.281 474.777H253.554C255.181 474.777 256.772 475.323 258.135 476.347C259.496 477.372 260.57 478.83 261.224 480.545C261.432 481.09 261.543 481.677 261.547 482.273Z" fill="#D7E8F0"/>
<path d="M239.45 486.445C239.349 486.669 239.232 486.883 239.102 487.086C236.568 491.097 231.09 491.462 226.815 487.881C226.301 487.436 225.817 486.949 225.365 486.423C222.432 483.018 221.527 478.263 223.287 474.756C223.384 474.531 223.498 474.316 223.629 474.114C226.163 470.126 231.666 469.783 235.941 473.349C236.449 473.774 236.928 474.244 237.373 474.756C240.324 478.205 241.223 482.989 239.45 486.445Z" fill="white"/>
<path d="M70.7363 253.976L71.2937 254.158L71.0847 255.092C70.9523 254.727 70.8358 254.355 70.7363 253.976Z" fill="#353642"/>
<path d="M169.85 312.313C178.188 309.496 182.568 297.886 179.635 286.382C176.702 274.879 167.566 267.838 159.229 270.655C150.892 273.474 146.512 285.083 149.445 296.586C152.378 308.09 161.514 315.131 169.85 312.313Z" fill="#D7E8F0"/>
</svg>
