<svg width="66" height="66" viewBox="0 0 66 66" fill="none" xmlns="http://www.w3.org/2000/svg">
<path d="M60 20.9978C61.5913 20.9978 63.1174 21.63 64.2426 22.7552C65.3679 23.8805 66 25.4067 66 26.9981V38.9987C66 40.5901 65.3679 42.1162 64.2426 43.2415C63.1174 44.3668 61.5913 44.999 60 44.999H56.814C56.0826 50.7992 53.2598 56.1331 48.8752 59.9997C44.4907 63.8663 38.8458 65.9999 33 66V59.9997C37.7739 59.9997 42.3523 58.1032 45.7279 54.7274C49.1036 51.3516 51 46.773 51 41.9988V23.9979C51 19.2238 49.1036 14.6452 45.7279 11.2694C42.3523 7.89358 37.7739 5.99706 33 5.99706C28.2261 5.99706 23.6477 7.89358 20.2721 11.2694C16.8964 14.6452 15 19.2238 15 23.9979V44.999H6C4.4087 44.999 2.88258 44.3668 1.75736 43.2415C0.632141 42.1162 0 40.5901 0 38.9987V26.9981C0 25.4067 0.632141 23.8805 1.75736 22.7552C2.88258 21.63 4.4087 20.9978 6 20.9978H9.186C9.91809 15.1982 12.7412 9.86507 17.1257 5.99909C21.5102 2.13311 27.1547 0 33 0C38.8453 0 44.4898 2.13311 48.8743 5.99909C53.2588 9.86507 56.0819 15.1982 56.814 20.9978H60ZM20.28 44.3539L23.46 39.2657C26.3192 41.0569 29.6261 42.0043 33 41.9988C36.3739 42.0043 39.6808 41.0569 42.54 39.2657L45.72 44.3539C41.9078 46.7425 37.4986 48.006 33 47.9991C28.5014 48.0062 24.0922 46.7426 20.28 44.3539Z" fill="white"/>
</svg>
